<svg t="1596002722930" class="icon" viewBox="0 0 1024 1024" version="1.1" xmlns="http://www.w3.org/2000/svg" p-id="9225"><path d="M928 297.92L725.824 96 509.536 312 299.52 102.24 96 305.504l210.016 209.744-139.04 138.848-53.6 231.888a19.056 19.056 0 0 0 22.912 22.944L369.152 856l139.04-138.848L719.328 928l203.52-203.248-211.12-210.848L928 297.904z m-628.48-109.792l165.84 165.6-117.92 117.024-19.008-18.976 37.6-37.568a30.32 30.32 0 0 0-0.304-42.624 30.432 30.432 0 0 0-42.672-0.304l-37.6 37.552-30.944-30.88 37.616-37.568a30.32 30.32 0 0 0 0-42.928 30.432 30.432 0 0 0-42.976 0l-37.616 37.568-29.568-29.52 117.552-117.376z m419.808 654l-30.24-30.16 37.6-37.568a30.336 30.336 0 0 0-0.112-42.832 30.432 30.432 0 0 0-42.88-0.112l-37.6 37.568-30.912-30.864 37.6-37.552c11.36-11.936 11.136-30.72-0.512-42.368a30.432 30.432 0 0 0-42.432-0.56l-37.616 37.568-20.32-20.352 117.12-117.776 167.84 167.632-117.536 117.376zM391.36 748l-116.24-116.048L621.168 286.4l116.192 116.048L391.36 748z m450.672-450.08l-61.68 61.6-116.224-116.048 61.696-61.6 116.208 116.032zM187.536 834.992l34.736-150.304 9.84-9.808 116.224 116-9.76 9.76-151.04 34.352z" p-id="9226"></path></svg>