<?xml version="1.0" standalone="no"?><!DOCTYPE svg PUBLIC "-//W3C//DTD SVG 1.1//EN" "http://www.w3.org/Graphics/SVG/1.1/DTD/svg11.dtd"><svg t="1595316895536" class="icon" viewBox="0 0 1024 1024" version="1.1" xmlns="http://www.w3.org/2000/svg" p-id="1647" xmlns:xlink="http://www.w3.org/1999/xlink" width="200" height="200"><defs><style type="text/css"></style></defs><path d="M954.61689922 512.36915469l-134.37243633-296.80065615v-28.79409287H574.38720283c0-42.0836748-27.31747324-72.35438906-64.23297802-72.35438906-34.70057402 0-64.23297802 28.05578349-64.23297803 72.35438906H203.75553711v33.96226376L71.59803154 512.36915469c0 86.38228037 62.01804727 165.38145996 158.73666944 165.38146083 98.93355205 0 158.73666943-78.99917959 158.73666943-165.38146083L269.46513565 245.10090254H460.68744834v578.09680048H273.15668604c-72.35438906 0-101.88679219 20.67268271-101.88679307 87.12059063h684.4134542c0-56.84987724-29.53240401-87.12059063-101.88679219-87.12059063h-199.34372461V245.10090254h203.035275L637.14356035 512.36915469c0 86.38228037 62.01804727 165.38145996 158.73666944 165.38146083 98.1952418 0 158.73666943-78.99917959 158.73666943-165.38146083z m-633.47005722 0H140.99917959l90.07383076-229.61443799L321.146842 512.36915469z m384.65955703 0l90.07383076-229.61443799L885.95406055 512.36915469H705.80639903z" p-id="1648"></path></svg>