<?xml version="1.0" standalone="no"?><!DOCTYPE svg PUBLIC "-//W3C//DTD SVG 1.1//EN" "http://www.w3.org/Graphics/SVG/1.1/DTD/svg11.dtd"><svg t="1595316915500" class="icon" viewBox="0 0 1024 1024" version="1.1" xmlns="http://www.w3.org/2000/svg" p-id="1915" xmlns:xlink="http://www.w3.org/1999/xlink" width="200" height="200"><defs><style type="text/css"></style></defs><path d="M878.933333 901.12H102.4V211.626667h459.093333v68.266666H170.666667v552.96h640V575.146667h68.266666z" p-id="1916"></path><path d="M578.56 669.013333c17.066667 13.653333 37.546667 5.12 75.093333-11.946666 11.946667-5.12 17.066667-20.48 11.946667-32.426667-5.12-11.946667-20.48-17.066667-32.426667-11.946667-5.12 1.706667-8.533333 3.413333-11.946666 5.12 1.706667-10.24 1.706667-23.893333-3.413334-37.546666-1.706667-8.533333-10.24-34.133333-32.426666-39.253334-27.306667-6.826667-49.493333 17.066667-85.333334 56.32l-17.066666 18.773334c0-5.12 0-10.24-1.706667-13.653334-1.706667-20.48-3.413333-44.373333-6.826667-68.266666-5.12-29.013333-22.186667-35.84-32.426666-37.546667-13.653333-1.706667-52.906667-8.533333-155.306667 174.08-6.826667 11.946667-1.706667 25.6 8.533333 32.426667 3.413333 1.706667 8.533333 3.413333 11.946667 3.413333 8.533333 0 17.066667-5.12 20.48-11.946667 35.84-64.853333 78.506667-124.586667 100.693333-143.36 3.413333 18.773333 5.12 37.546667 5.12 54.613334 1.706667 35.84 3.413333 63.146667 27.306667 69.973333 23.893333 8.533333 44.373333-13.653333 54.613333-25.6l18.773334-20.48c11.946667-13.653333 25.6-29.013333 35.84-37.546667 3.413333 11.946667 0 23.893333-1.706667 35.84 0 11.946667-3.413333 29.013333 10.24 40.96zM863.573333 81.92l-52.906666 52.906667-139.946667 139.946666-116.053333 116.053334-22.186667 124.586666 117.76-35.84 20.48-20.48 143.36-143.36 141.653333-141.653333-92.16-92.16z" p-id="1917"></path></svg>