<?xml version="1.0" standalone="no"?><!DOCTYPE svg PUBLIC "-//W3C//DTD SVG 1.1//EN" "http://www.w3.org/Graphics/SVG/1.1/DTD/svg11.dtd"><svg t="1595316929982" class="icon" viewBox="0 0 1071 1024" version="1.1" xmlns="http://www.w3.org/2000/svg" p-id="2185" xmlns:xlink="http://www.w3.org/1999/xlink" width="209.1796875" height="200"><defs><style type="text/css"></style></defs><path d="M90.17327173 374.83326977a55.33034985 55.33034985 0 0 1 17.37846167-41.25379586 57.68312613 57.68312613 0 0 1 41.73504566-16.88384454h58.96645834v263.45748504H149.24667456a57.68312613 57.68312613 0 0 1-41.73504483-16.88384372 55.33034985 55.33034985 0 0 1-17.37846249-41.22705953V374.83326977zM746.54441541 132.95181367Q786.87581619 94.50530835 819.68100488 90.76225454a74.16592905 74.16592905 0 0 1 58.1376396 17.3784625 164.42698755 164.42698755 0 0 1 43.11195418 61.85395706 500.80717227 500.80717227 0 0 1 29.06213572 90.90272461 902.2630144 902.2630144 0 0 1 16.84374005 104.97927861 1026.57249014 1026.57249014 0 0 1 5.61458029 104.51139696 709.17493277 709.17493277 0 0 1-7.04496148 99.41817178 591.84357771 591.84357771 0 0 1-20.57342487 93.34907721 403.71504209 403.71504209 0 0 1-31.88279444 76.41176084 145.59140835 145.59140835 0 0 1-40.79928158 48.73990182 61.3994436 61.3994436 0 0 1-48.28538837 11.21579242 101.1025448 101.1025448 0 0 1-53.89996865-36.56161065 207.88651072 207.88651072 0 0 0-73.52426212-52.97757358 641.90691623 641.90691623 0 0 0-101.26296195-35.63921475 1113.98615442 1113.98615442 0 0 0-111.11521316-23.43418809q-56.25274493-8.90311981-103.13448844-15.93471313t-78.28328732-13.5953042q-31.40154382-6.5637117-35.15796579-15.9480813v-293.42864767q3.74305297-13.12742258 29.54338549-21.57602893a534.81548584 534.81548584 0 0 1 65.62374638-15.9480813q39.83678201-7.52621127 89.9535932-16.40259476a926.71317389 926.71317389 0 0 0 102.22546152-24.3699505A683.64196189 683.64196189 0 0 0 656.57745486 194.33788909a361.45864297 361.45864297 0 0 0 90.00706504-61.41281176z m-337.54320511 574.82605315q4.67881704 11.22915976 11.21579242 24.36995051 5.62794846 12.19165933 14.9588454 28.07290064t22.44495217 34.69008332q15.9480813 22.44495217 32.35067523 47.37636146a286.14306171 286.14306171 0 0 1 24.83783295 45.01021701 54.44805845 54.44805845 0 0 1 5.16006602 33.28643847q-3.27517136 13.12742258-26.73609578 13.12742341h-53.32514172a84.96731167 84.96731167 0 0 1-34.69008416-7.03159333 101.11591297 101.11591297 0 0 1-30.46578058-21.57602893 264.05904748 264.05904748 0 0 1-30.01126712-37.04286044q-15.48019968-22.44495217-33.29980747-53.47219071a299.33732511 299.33732511 0 0 1-29.99789896-62.33520684 314.14912235 314.14912235 0 0 1-11.21579242-44.54233539 85.16783249 85.16783249 0 0 1 0-35.63921475 130.92665928 130.92665928 0 0 1 17.81960779 3.74305298q8.44860636 1.85815833 20.62689752 4.6921852t28.07290064 5.58784397q15.93471313 3.74305297 28.60762225 7.03159251t22.96630564 7.03159331q11.22915976 3.74305297 20.62689834 7.48610679z m0 0" p-id="2186"></path></svg>