<svg t="1597996661243" class="icon" viewBox="0 0 1024 1024" version="1.1" xmlns="http://www.w3.org/2000/svg" p-id="1799" width="200" height="200"><path d="M514.25 162.35l297 297.45-206.1 206.55-105.3-105.75-345.15 345.6c-21.15 21.15-55.35 21.15-76.5 0-21.15-21.15-21.15-55.35 0-76.95l345.15-345.6-115.2-114.75 206.1-206.55z" fill="#3366FF" p-id="1800"></path><path d="M236.6 326.15c17.1 17.1 45 17.1 62.1 0L471.5 153.35c17.1-17.1 17.1-45 0-62.55-17.1-17.1-45-17.1-62.55 0L236.6 263.6c-17.1 17.55-17.1 45.45 0 62.55zM818 504.8l-172.35 172.8c-17.1 17.1-17.1 45 0 62.55 17.1 17.1 45 17.1 62.55 0l172.35-172.8c16.65-17.55 16.2-45.45-1.8-62.55-17.1-16.2-43.65-16.2-60.75 0z" fill="#AEC9FF" p-id="1801"></path><path d="M962 946.25c0-50.85-41.4-92.25-92.25-92.25H530c-50.85 0-92.25 41.4-92.25 92.25H962z" fill="#3366FF" p-id="1802"></path></svg>